<?xml version="1.0" encoding="UTF-8"?>
<svg version="1.1" xmlns="http://www.w3.org/2000/svg" width="96" height="96">
<path d="M0 0 C1.8569751 -0.00472824 1.8569751 -0.00472824 3.75146484 -0.009552 C5.11295609 -0.00776222 6.47444701 -0.00571127 7.8359375 -0.00341797 C9.22216814 -0.00409106 10.60839867 -0.00506113 11.99462891 -0.00631714 C14.90333172 -0.00779387 17.81200387 -0.00564037 20.72070312 -0.00097656 C24.45690348 0.00472073 28.19303202 0.00144159 31.92922974 -0.00454903 C34.79273016 -0.00815532 37.65621343 -0.00701574 40.51971436 -0.00442123 C41.89768482 -0.00375215 43.27565682 -0.00457973 44.65362549 -0.00690079 C46.57637504 -0.00942839 48.49913002 -0.0048957 50.421875 0 C52.06615479 0.00119339 52.06615479 0.00119339 53.74365234 0.00241089 C56.2109375 0.12939453 56.2109375 0.12939453 57.2109375 1.12939453 C58.41404697 5.39206717 58.26859522 8.8368088 57.2109375 13.12939453 C54.38028537 18.00754065 50.69082919 22.25001349 47.0546875 26.53955078 C46.1265625 27.65100464 46.1265625 27.65100464 45.1796875 28.78491211 C43.80852066 30.4177637 42.41037462 32.02817788 40.9921875 33.62036133 C34.78656353 41.13706188 34.06202229 47.24164685 34.2109375 56.81689453 C34.19933594 58.10273437 34.18773437 59.38857422 34.17578125 60.71337891 C34.15243309 63.85370677 34.16486064 66.98944877 34.2109375 70.12939453 C28.90918516 71.38035078 25.56919957 70.58600467 20.65161133 68.18261719 C18.73785222 66.97893695 17.52212412 65.97794376 16.2109375 64.12939453 C15.52943616 60.74335243 15.73476859 57.44144159 15.8984375 54.00439453 C16.46340666 40.45997227 9.8074409 33.15684104 1.18823242 23.37866211 C-7.6253666 13.35277153 -7.6253666 13.35277153 -7.2265625 6.69189453 C-7.16275391 5.14695312 -7.16275391 5.14695312 -7.09765625 3.57080078 C-6.51767244 -1.01767873 -4.14298431 0.00300691 0 0 Z M0.2109375 6.12939453 C1.1706013 10.92771351 1.7734105 12.31213675 4.6328125 15.96533203 C5.67695313 17.31498047 5.67695313 17.31498047 6.7421875 18.69189453 C7.474375 19.62001953 8.2065625 20.54814453 8.9609375 21.50439453 C10.39411937 23.3448475 11.82642987 25.18597939 13.2578125 27.02783203 C13.94423828 27.89762695 14.63066406 28.76742187 15.33789062 29.66357422 C16.97461442 31.81828099 18.41259594 34.00607579 19.8515625 36.29345703 C21.91656005 39.41255136 21.91656005 39.41255136 25.11621094 39.57617188 C28.26970374 39.40781682 28.26970374 39.40781682 30.265625 37.32861328 C31.16667969 36.0853125 31.16667969 36.0853125 32.0859375 34.81689453 C32.76140625 33.90552734 33.436875 32.99416016 34.1328125 32.05517578 C34.81859375 31.08966797 35.504375 30.12416016 36.2109375 29.12939453 C36.89671875 28.19482422 37.5825 27.26025391 38.2890625 26.29736328 C39.64051073 24.45330701 40.98190138 22.60183235 42.3125 20.74267578 C44.51150277 17.71565345 46.82126665 14.78742007 49.1796875 11.88330078 C50.54883904 9.89380865 50.54883904 9.89380865 50.2109375 6.12939453 C33.7109375 6.12939453 17.2109375 6.12939453 0.2109375 6.12939453 Z M22.2109375 45.12939453 C22.2109375 49.74939453 22.2109375 54.36939453 22.2109375 59.12939453 C24.1909375 60.11939453 26.1709375 61.10939453 28.2109375 62.12939453 C28.2109375 56.51939453 28.2109375 50.90939453 28.2109375 45.12939453 C26.2309375 45.12939453 24.2509375 45.12939453 22.2109375 45.12939453 Z " fill="#000000" transform="translate(22.7890625,14.87060546875)"/>
</svg>
